<svg xmlns="http://www.w3.org/2000/svg" viewBox="0 0 64 64">
  <rect width="64" height="64" rx="14" fill="#00509E"/>
  <!-- W — serif uppercase -->
  <path d="M6 16h5l4.5 24 5-18h3l5 18L33 16h5l-8.5 33h-4l-4.5-17-4.5 17h-4z" fill="white"/>
  <!-- S — serif uppercase -->
  <path d="M47 20.5c-4.5 0-6.5 2-6.5 4.8 0 3.2 2.5 4.2 6.5 5.5 4.5 1.5 7.5 3.2 7.5 8 0 5.5-4 8.2-8.5 8.2-3.5 0-6.5-1.2-8.5-3.5l3-3.5c1.8 1.8 3.5 2.8 5.8 2.8 2.8 0 4.5-1.5 4.5-4 0-2.8-2-4-6-5.3-4.5-1.5-8-3.2-8-8.3 0-5 3.8-8 8.5-8 3 0 5.8 1 7.8 3l-3 3.5c-1.5-1.5-3-2.2-5-2.2z" fill="white"/>
</svg>
